<svg xmlns="http://www.w3.org/2000/svg" viewBox="0 0 96.74 98.39"><defs><style>.cls-1{fill:#fff;}</style></defs><g id="Layer_2" data-name="Layer 2"><g id="Layer_1-2" data-name="Layer 1"><path class="cls-1" d="M51.23,98.39,45.85,80.67C34.6,86.06,23,86.82,11.22,84.42L10.47,83l9.94-9.38C12.78,68.58,4.2,64.79,0,55.41c6-3.83,12.52-.93,18.93-2.09-2.57-5.79-5.36-11.22-7.4-16.92A70.4,70.4,0,0,1,7.78,18.91C19.63,22.08,28,29.55,36.93,39c.55-3.57.81-6,1.33-8.43C40,22.6,41.66,14.66,43.7,6.82,44.24,4.76,46,3,48,0c2,2.67,3.92,4.22,4.46,6.16,2.16,7.81,4,15.72,5.73,23.63.56,2.5.6,5.13,1,9.26,9-9.15,17.37-16.72,29-20.34.16,12.61-5.14,23.45-11.54,35.4h20.1C92.59,64.55,84.29,68.56,75.89,73.37L87,83.77C73.91,87,62.58,86,50.12,80.49l3.11,17.9Z"/></g></g></svg>